<svg xmlns="http://www.w3.org/2000/svg" width="1200" height="340" viewBox="0 0 1200 340" role="img" aria-labelledby="title desc">
  <title id="title">Abhishek Loganathan</title>
  <desc id="desc">AI builder who likes to build and market things</desc>
  <defs>
    <linearGradient id="bg" x1="0" y1="0" x2="1" y2="1">
      <stop offset="0" stop-color="#070B14"/>
      <stop offset="0.52" stop-color="#0D1728"/>
      <stop offset="1" stop-color="#111C32"/>
    </linearGradient>
    <linearGradient id="accent" x1="0" y1="0" x2="1" y2="0">
      <stop offset="0" stop-color="#58A6FF"/>
      <stop offset="0.52" stop-color="#8B5CF6"/>
      <stop offset="1" stop-color="#2DD4BF"/>
    </linearGradient>
    <radialGradient id="glow" cx="50%" cy="50%" r="50%">
      <stop offset="0" stop-color="#58A6FF" stop-opacity="0.34"/>
      <stop offset="1" stop-color="#58A6FF" stop-opacity="0"/>
    </radialGradient>
    <pattern id="grid" width="36" height="36" patternUnits="userSpaceOnUse">
      <path d="M36 0H0V36" fill="none" stroke="#58A6FF" stroke-opacity="0.08" stroke-width="1"/>
    </pattern>
    <filter id="shadow" x="-50%" y="-50%" width="200%" height="200%">
      <feDropShadow dx="0" dy="8" stdDeviation="12" flood-color="#000" flood-opacity="0.38"/>
    </filter>
  </defs>

  <rect x="1" y="1" width="1198" height="338" rx="28" fill="url(#bg)" stroke="#26344E" stroke-width="2"/>
  <rect x="1" y="1" width="1198" height="338" rx="28" fill="url(#grid)"/>
  <circle cx="1000" cy="150" r="250" fill="url(#glow)"/>
  <path d="M0 292C184 238 294 340 475 286C652 233 752 252 925 300C1030 329 1111 310 1200 269V340H0Z" fill="#58A6FF" opacity="0.055"/>

  <g transform="translate(64 70)">
    <rect width="236" height="32" rx="16" fill="#17233A" stroke="#334155"/>
    <circle cx="18" cy="16" r="5" fill="#2DD4BF"/>
    <text x="34" y="21" fill="#9FB5D1" font-family="Inter,Segoe UI,sans-serif" font-size="13" font-weight="700" letter-spacing="2.1">AI · PRODUCT · DISTRIBUTION</text>

    <text x="0" y="101" fill="#F8FAFC" font-family="Inter,Segoe UI,sans-serif" font-size="52" font-weight="800" letter-spacing="1.2">ABHISHEK</text>
    <text x="0" y="157" fill="url(#accent)" font-family="Inter,Segoe UI,sans-serif" font-size="52" font-weight="800" letter-spacing="1.2">LOGANATHAN</text>
    <text x="2" y="203" fill="#CAD5E4" font-family="Inter,Segoe UI,sans-serif" font-size="22" font-weight="500">AI builder who likes to build and market things.</text>
    <text x="2" y="239" fill="#7187A7" font-family="Fira Code,Consolas,monospace" font-size="15">Bengaluru · IIM Ahmedabad, NIT Trichy</text>
  </g>

  <g transform="translate(760 45)" filter="url(#shadow)">
    <path d="M64 118L157 62L258 104L340 44" fill="none" stroke="#334E73" stroke-width="2"/>
    <path d="M64 118L155 190L260 148L350 228" fill="none" stroke="#334E73" stroke-width="2"/>
    <path d="M157 62L155 190M258 104L260 148M340 44L350 228" fill="none" stroke="#253752" stroke-width="1.5" stroke-dasharray="5 7"/>

    <g transform="translate(24 82)">
      <rect width="118" height="72" rx="18" fill="#121F34" stroke="#58A6FF" stroke-width="2"/>
      <circle cx="24" cy="24" r="7" fill="#58A6FF"/>
      <text x="42" y="29" fill="#E2E8F0" font-family="Inter,Segoe UI,sans-serif" font-size="14" font-weight="700">BUILD</text>
      <text x="18" y="52" fill="#6F88A9" font-family="Fira Code,Consolas,monospace" font-size="11">products</text>
    </g>
    <g transform="translate(116 24)">
      <rect width="122" height="72" rx="18" fill="#171B36" stroke="#8B5CF6" stroke-width="2"/>
      <circle cx="25" cy="24" r="7" fill="#8B5CF6"/>
      <text x="43" y="29" fill="#E2E8F0" font-family="Inter,Segoe UI,sans-serif" font-size="14" font-weight="700">SHIP</text>
      <text x="18" y="52" fill="#827AA8" font-family="Fira Code,Consolas,monospace" font-size="11">systems</text>
    </g>
    <g transform="translate(217 68)">
      <rect width="124" height="72" rx="18" fill="#10282B" stroke="#2DD4BF" stroke-width="2"/>
      <circle cx="25" cy="24" r="7" fill="#2DD4BF"/>
      <text x="43" y="29" fill="#E2E8F0" font-family="Inter,Segoe UI,sans-serif" font-size="14" font-weight="700">EVAL</text>
      <text x="18" y="52" fill="#6E9F9A" font-family="Fira Code,Consolas,monospace" font-size="11">evidence</text>
    </g>
    <g transform="translate(116 154)">
      <rect width="124" height="72" rx="18" fill="#2C2118" stroke="#F59E0B" stroke-width="2"/>
      <circle cx="25" cy="24" r="7" fill="#F59E0B"/>
      <text x="43" y="29" fill="#E2E8F0" font-family="Inter,Segoe UI,sans-serif" font-size="14" font-weight="700">LEARN</text>
      <text x="18" y="52" fill="#A88A62" font-family="Fira Code,Consolas,monospace" font-size="11">feedback</text>
    </g>
    <g transform="translate(307 5)">
      <circle cx="34" cy="34" r="34" fill="#17233A" stroke="#58A6FF" stroke-width="2"/>
      <path d="M22 35L30 43L47 25" fill="none" stroke="#58A6FF" stroke-width="4" stroke-linecap="round" stroke-linejoin="round"/>
    </g>
    <g transform="translate(315 193)">
      <circle cx="35" cy="35" r="35" fill="#231A25" stroke="#F97316" stroke-width="2"/>
      <path d="M22 37C28 20 42 20 49 37C42 53 28 53 22 37Z" fill="none" stroke="#F97316" stroke-width="3"/>
      <circle cx="35.5" cy="36" r="5" fill="#F97316"/>
    </g>
  </g>
</svg>
