<svg xmlns="http://www.w3.org/2000/svg" width="760" height="320" viewBox="0 0 760 320" role="img" aria-labelledby="title desc">
  <title id="title">Primer AI</title>
  <desc id="desc">Sourced company intelligence from any webpage</desc>
  <defs>
    <linearGradient id="bg" x1="0" y1="0" x2="1" y2="1"><stop stop-color="#0B101C"/><stop offset="1" stop-color="#111C2D"/></linearGradient>
    <linearGradient id="bar" x1="0" y1="0" x2="1" y2="0"><stop stop-color="#2DD4BF"/><stop offset="1" stop-color="#58A6FF"/></linearGradient>
    <radialGradient id="glow"><stop stop-color="#2DD4BF" stop-opacity=".2"/><stop offset="1" stop-color="#2DD4BF" stop-opacity="0"/></radialGradient>
    <pattern id="grid" width="28" height="28" patternUnits="userSpaceOnUse"><path d="M28 0H0V28" fill="none" stroke="#6D89AE" stroke-opacity=".055"/></pattern>
  </defs>
  <rect x="1" y="1" width="758" height="318" rx="22" fill="url(#bg)" stroke="#2D3D56" stroke-width="2"/>
  <rect x="1" y="1" width="758" height="318" rx="22" fill="url(#grid)"/>
  <circle cx="610" cy="130" r="190" fill="url(#glow)"/>
  <rect x="0" y="0" width="8" height="320" rx="4" fill="url(#bar)"/>
  <g transform="translate(36 32)">
    <rect width="152.5" height="30" rx="15" fill="#172235" stroke="#2DD4BF" stroke-opacity=".75"/>
    <circle cx="16" cy="15" r="4" fill="#2DD4BF"/>
    <text x="28" y="20" fill="#AFC1D8" font-family="Inter,Segoe UI,sans-serif" font-size="11" font-weight="800" letter-spacing="1.25">BROWSER PRODUCT</text>
  </g>
  <text x="36" y="116" fill="#F7FAFC" font-family="Inter,Segoe UI,sans-serif" font-size="38" font-weight="800">Primer AI</text>
  <text x="36" y="158" fill="#AFC0D4" font-family="Inter,Segoe UI,sans-serif" font-size="17" font-weight="500">Sourced company intelligence</text>
  <text x="36" y="184" fill="#7F94AF" font-family="Inter,Segoe UI,sans-serif" font-size="17">from any webpage</text>
  <rect x="36" y="251" width="62" height="30" rx="15" fill="#151F31" stroke="#2DD4BF" stroke-opacity=".55"/><text x="67" y="271" text-anchor="middle" fill="#AFC0D6" font-family="Fira Code,Consolas,monospace" font-size="11" font-weight="700">React</text><rect x="108" y="251" width="62" height="30" rx="15" fill="#151F31" stroke="#2DD4BF" stroke-opacity=".55"/><text x="139" y="271" text-anchor="middle" fill="#AFC0D6" font-family="Fira Code,Consolas,monospace" font-size="11" font-weight="700">WXT</text><rect x="180" y="251" width="102" height="30" rx="15" fill="#151F31" stroke="#2DD4BF" stroke-opacity=".55"/><text x="231" y="271" text-anchor="middle" fill="#AFC0D6" font-family="Fira Code,Consolas,monospace" font-size="11" font-weight="700">Cloudflare</text>
  
    <g transform="translate(430 74) scale(.95)">
      <rect x="0" y="24" width="112" height="78" rx="13" fill="#111B2B" stroke="#58A6FF" stroke-width="2"/>
      <rect x="15" y="43" width="62" height="7" rx="3.5" fill="#58A6FF" opacity=".9"/>
      <rect x="15" y="61" width="78" height="6" rx="3" fill="#51647F"/>
      <rect x="15" y="77" width="52" height="6" rx="3" fill="#3B4B63"/>
      <path d="M121 63H163" stroke="#435A78" stroke-width="3" stroke-dasharray="5 5"/>
      <path d="M154 52L166 63L154 74" fill="none" stroke="#2DD4BF" stroke-width="3"/>
      <rect x="176" y="0" width="142" height="128" rx="17" fill="#101D29" stroke="#2DD4BF" stroke-width="2"/>
      <circle cx="202" cy="27" r="8" fill="#2DD4BF"/>
      <rect x="220" y="21" width="73" height="10" rx="5" fill="#D9F7F1" opacity=".85"/>
      <rect x="196" y="50" width="95" height="7" rx="3.5" fill="#63778B"/>
      <rect x="196" y="69" width="106" height="7" rx="3.5" fill="#405366"/>
      <rect x="196" y="88" width="73" height="7" rx="3.5" fill="#405366"/>
      <circle cx="289" cy="107" r="6" fill="#58A6FF"/>
    </g>
</svg>