<svg xmlns="http://www.w3.org/2000/svg" width="760" height="320" viewBox="0 0 760 320" role="img" aria-labelledby="title desc">
  <title id="title">Syndicate AI</title>
  <desc id="desc">A live AI war room for system design</desc>
  <defs>
    <linearGradient id="bg" x1="0" y1="0" x2="1" y2="1"><stop stop-color="#0B101C"/><stop offset="1" stop-color="#111C2D"/></linearGradient>
    <linearGradient id="bar" x1="0" y1="0" x2="1" y2="0"><stop stop-color="#8B5CF6"/><stop offset="1" stop-color="#58A6FF"/></linearGradient>
    <radialGradient id="glow"><stop stop-color="#8B5CF6" stop-opacity=".2"/><stop offset="1" stop-color="#8B5CF6" stop-opacity="0"/></radialGradient>
    <pattern id="grid" width="28" height="28" patternUnits="userSpaceOnUse"><path d="M28 0H0V28" fill="none" stroke="#6D89AE" stroke-opacity=".055"/></pattern>
  </defs>
  <rect x="1" y="1" width="758" height="318" rx="22" fill="url(#bg)" stroke="#2D3D56" stroke-width="2"/>
  <rect x="1" y="1" width="758" height="318" rx="22" fill="url(#grid)"/>
  <circle cx="610" cy="130" r="190" fill="url(#glow)"/>
  <rect x="0" y="0" width="8" height="320" rx="4" fill="url(#bar)"/>
  <g transform="translate(36 32)">
    <rect width="111" height="30" rx="15" fill="#172235" stroke="#8B5CF6" stroke-opacity=".75"/>
    <circle cx="16" cy="15" r="4" fill="#8B5CF6"/>
    <text x="28" y="20" fill="#AFC1D8" font-family="Inter,Segoe UI,sans-serif" font-size="11" font-weight="800" letter-spacing="1.25">AI PRODUCT</text>
  </g>
  <text x="36" y="116" fill="#F7FAFC" font-family="Inter,Segoe UI,sans-serif" font-size="38" font-weight="800">Syndicate AI</text>
  <text x="36" y="158" fill="#AFC0D4" font-family="Inter,Segoe UI,sans-serif" font-size="17" font-weight="500">A live AI war room for</text>
  <text x="36" y="184" fill="#7F94AF" font-family="Inter,Segoe UI,sans-serif" font-size="17">system design</text>
  <rect x="36" y="251" width="62" height="30" rx="15" fill="#151F31" stroke="#8B5CF6" stroke-opacity=".55"/><text x="67" y="271" text-anchor="middle" fill="#AFC0D6" font-family="Fira Code,Consolas,monospace" font-size="11" font-weight="700">React</text><rect x="108" y="251" width="102" height="30" rx="15" fill="#151F31" stroke="#8B5CF6" stroke-opacity=".55"/><text x="159" y="271" text-anchor="middle" fill="#AFC0D6" font-family="Fira Code,Consolas,monospace" font-size="11" font-weight="700">TypeScript</text><rect x="220" y="251" width="70" height="30" rx="15" fill="#151F31" stroke="#8B5CF6" stroke-opacity=".55"/><text x="255" y="271" text-anchor="middle" fill="#AFC0D6" font-family="Fira Code,Consolas,monospace" font-size="11" font-weight="700">Convex</text>
  
    <g transform="translate(555 150)">
      <circle r="35" fill="#151C31" stroke="#8B5CF6" stroke-width="3"/>
      <circle r="11" fill="#8B5CF6"/>
      <path d="M0 0L0 -82" stroke="#344763" stroke-width="2"/><circle cx="0" cy="-82" r="19" fill="#101827" stroke="#8B5CF6" stroke-width="2"/><circle cx="0" cy="-82" r="5" fill="#8B5CF6"/><path d="M0 0L77 -26" stroke="#344763" stroke-width="2"/><circle cx="77" cy="-26" r="19" fill="#101827" stroke="#58A6FF" stroke-width="2"/><circle cx="77" cy="-26" r="5" fill="#58A6FF"/><path d="M0 0L48 68" stroke="#344763" stroke-width="2"/><circle cx="48" cy="68" r="19" fill="#101827" stroke="#8B5CF6" stroke-width="2"/><circle cx="48" cy="68" r="5" fill="#8B5CF6"/><path d="M0 0L-48 68" stroke="#344763" stroke-width="2"/><circle cx="-48" cy="68" r="19" fill="#101827" stroke="#58A6FF" stroke-width="2"/><circle cx="-48" cy="68" r="5" fill="#58A6FF"/><path d="M0 0L-77 -26" stroke="#344763" stroke-width="2"/><circle cx="-77" cy="-26" r="19" fill="#101827" stroke="#8B5CF6" stroke-width="2"/><circle cx="-77" cy="-26" r="5" fill="#8B5CF6"/>
    </g>
</svg>